PathFileType	4	(X/Y/Z)	34_1_8_p0_0-806.trc
DataRate	CameraRate	NumFrames	NumMarkers	Units	OrigDataRate	OrigDataStartFrame	OrigNumFrames
60.0	60.0	7	27	m	60.0	0	807
Frame#	Time	RHip			RKnee			RAnkle			RBigToe			RSmallToe			RHeel			LHip			LKnee			LAnkle			LBigToe			LSmallToe			LHeel			Neck			Head			Nose			RShoulder			RElbow			RWrist			RThumb			RIndex			RPinky			LShoulder			LElbow			LWrist			LThumb			LIndex			LPinky			
		X1	Y1	Z1	X2	Y2	Z2	X3	Y3	Z3	X4	Y4	Z4	X5	Y5	Z5	X6	Y6	Z6	X7	Y7	Z7	X8	Y8	Z8	X9	Y9	Z9	X10	Y10	Z10	X11	Y11	Z11	X12	Y12	Z12	X13	Y13	Z13	X14	Y14	Z14	X15	Y15	Z15	X16	Y16	Z16	X17	Y17	Z17	X18	Y18	Z18	X19	Y19	Z19	X20	Y20	Z20	X21	Y21	Z21	X22	Y22	Z22	X23	Y23	Z23	X24	Y24	Z24	X25	Y25	Z25	X26	Y26	Z26	X27	Y27	Z27	
0	0.0	0.34749805841133763	0.4814834998197047	1.00514118613256	0.36330610389117685	0.5692389023285374	1.3694238275044153	0.3653934461998681	0.6915130433026645	1.7299246660279834	0.3494999405891794	0.566277966331103	1.7806787724088886	0.4145196629703413	0.5857088263742456	1.7846443659459408	0.34251557704494634	0.832392901653252	1.8083813822816912	0.15074351378260523	0.5103749495192529	1.0160022040056742	0.17331402043282057	0.6571802597306498	1.407535575573522	0.1796917156378272	0.7481171035771017	1.7549476955218466	0.1922237754222524	0.5720661394243385	1.7668080448203143	0.1358405508014462	0.6152365161346506	1.775071128365543	0.18531352373766846	0.7969370570990684	1.7934477351155553	0.24932935096433198	0.39243607995267404	0.5438327708165002	0.26087521511979134	0.2848793550566847	0.3204186506221973	0.2524273173195733	0.24426049806955122	0.45238224127472154	0.4068296385396019	0.40073734762193686	0.6254631488764242	0.41988955052061744	0.44949681847846107	0.8739700559066723	0.3508110697674725	0.36153417796886367	1.048618361737002	0.2779318464623739	0.3387007225907111	1.1227217782044314	0.2666572928198666	0.35088803904242044	1.1438377371594108	0.2667840302439375	0.3790824684364555	1.1503357965530392	0.10986426978666607	0.39343330788616765	0.6288053762411093	0.10380971747079094	0.4283804310081624	0.8747112255342385	0.1801718661087876	0.3532385170163168	1.0571770322009804	0.2737692332701594	0.3531665749587517	1.0932168797346988	0.27328141535583655	0.36124510507887797	1.1351377083595626	0.24830316484470813	0.3529896496604143	1.1533426871035646
1	0.016666666666666666	0.34894918636750755	0.48300517784157326	1.005730187488238	0.3669622084308203	0.5830994215418019	1.3726851476485442	0.365327952590345	0.6913529516328153	1.729742054436237	0.3460182756213437	0.5525851371126634	1.7756985499938847	0.4144012068272504	0.5848185301939783	1.7843035967527252	0.33713306717140135	0.8146552165158852	1.7934031084440443	0.1513795382035777	0.5129496456577869	1.0205434142596679	0.17438489117144235	0.6554007071162808	1.4034995457454673	0.1845085596448567	0.7492708138449187	1.754918798114072	0.18963569238081993	0.5573689670461435	1.7615304833187997	0.1358130782865449	0.6148197743850288	1.7748812332248018	0.1905719827116939	0.7789020632884671	1.786830231512008	0.24525779133198017	0.40537771230857944	0.5437966646162513	0.2608461751060629	0.28533335404989235	0.3238549560165313	0.25246744831693435	0.24421257126388674	0.45238623730143046	0.40700383755955327	0.399720711383461	0.6220311517707715	0.4245838047009484	0.4495605807624002	0.8700687840126079	0.3513638591689866	0.3610968191938672	1.045022920382652	0.28078266382316486	0.35132842309595186	1.1248270729892826	0.2669800878790751	0.3512991180905128	1.1409375768817855	0.266559966767915	0.379956970425395	1.1504950349813923	0.1098876897409168	0.39354563557660416	0.6286019828162569	0.10335123367812764	0.4262918126813364	0.870505540823514	0.1795328866012663	0.3510850512511514	1.0528804250347885	0.26950033808841406	0.3417846876151082	1.087468580240428	0.26995571425794757	0.34817823641616324	1.1328886955801623	0.2506979113769736	0.36190026576105583	1.1553832099906987
2	0.03333333333333333	0.35260083388625113	0.48544735380745013	1.00955925096604	0.3670010318023245	0.5832736165419395	1.3727396877070153	0.36534820550109515	0.6914957255350852	1.7298042479877154	0.34947918411844503	0.5658182948585254	1.7805801295080856	0.4144692840002792	0.5850367934091774	1.7843978565914491	0.3371543837776686	0.8148523508779979	1.793403249320534	0.15631983073790973	0.4988306587635643	1.0183819014236395	0.17442478342265674	0.6552504787606767	1.403635092746605	0.1844589396903507	0.7494502731550946	1.7550713234532909	0.19123892022714778	0.573480204679564	1.7710050906346986	0.1357834352677816	0.615004403644948	1.7749851640786576	0.19050851251262438	0.7792684677146327	1.7869980213900483	0.2452168865554046	0.4053416840950061	0.5437397456000415	0.260798416128196	0.2853016215050235	0.323873273549315	0.25245317928483896	0.2441834791005916	0.4523875715527926	0.40704690337914284	0.39969916920047494	0.6220127510043577	0.424642527325239	0.4493880264149381	0.8701572875149937	0.3514109167491835	0.36090535367913884	1.0450594727112958	0.2731407497694929	0.3532004372847245	1.117908352129677	0.26281601130825927	0.3640047985189723	1.139165337489431	0.26579968663895776	0.3808451081340409	1.153469035503242	0.1098961469868607	0.39357831587019376	0.6287001930227473	0.103785235454867	0.4286064454562366	0.8747124627039113	0.18017797312081232	0.3532730740256555	1.0572419807397675	0.26951306000531333	0.34109276570422664	1.0870009026264795	0.27023756900365603	0.34787174053055786	1.1325448484426797	0.25491458028610414	0.363901339585541	1.155563153976857
3	0.05	0.3531753106450221	0.48405684002236016	1.0056459924092092	0.3673951675534504	0.5817755420079616	1.3763485960915298	0.3652967072819974	0.6912893135897089	1.7297914466201547	0.3462205669490416	0.5524764647814299	1.7757390590693454	0.4145918370591232	0.5849090744822032	1.7843708854811726	0.33710375508741386	0.8147061655196823	1.7933827820568866	0.15913809754847058	0.5121450280875531	1.0203695517707996	0.1745168003748802	0.6553156641843146	1.4037056448396652	0.1845004543266678	0.7493450789083838	1.7550609203332366	0.19128622808613452	0.573311867087858	1.7708076083237752	0.1359090670439073	0.6150230960050229	1.7750690586404356	0.19052728876105704	0.7790929955621029	1.7868926082981036	0.2452149037180051	0.4053381256074457	0.5437296252152009	0.26083936387006157	0.28539002555631815	0.32382860261272556	0.2524685926807175	0.24418856537215622	0.4523448531288639	0.4069999122359789	0.3996265081124688	0.621966807554958	0.4283380765076454	0.4358068115988787	0.8684115603820681	0.3514345898474718	0.3609503899008882	1.0449021356340062	0.27653340824036254	0.3646041045725625	1.1233033203079323	0.26324352681740965	0.3628105592464882	1.1431456593099496	0.26602372304165495	0.38015325534086397	1.1532248063299606	0.11406376868449826	0.3958121930568379	0.6285301284060205	0.10304737104329516	0.4268489507960324	0.8670497298973504	0.1802040973965624	0.3533239333264515	1.0573001994872877	0.2730778845696195	0.35309307256475186	1.0892796457193035	0.27360645502479153	0.36101457031569545	1.1347187270267742	0.25547852667790755	0.36604524433995705	1.159078845801731
4	0.06666666666666667	0.3524254082563453	0.4821022684496514	1.0009989756474469	0.3637103142771592	0.5678247724314173	1.3732297151222328	0.3642923761027524	0.6884152082596504	1.724445591891395	0.3462238965027811	0.5528009327930504	1.7757529622904658	0.41478381708710166	0.5851869179708766	1.784427381169847	0.3370978783105566	0.8147705969907313	1.793329417195286	0.15034393825427275	0.5081334837815931	1.0117574889830652	0.17888505045485492	0.6563218657035708	1.4035043344595048	0.18451619808463895	0.7492842030198459	1.7547357299472783	0.18966545157166503	0.5573360434894605	1.760977065362242	0.1358611618486556	0.6148873849374444	1.77472754886174	0.19051040269555045	0.7793241432236105	1.7868437124703738	0.24959617061765044	0.4070698453977557	0.5434438705270419	0.26086546433976543	0.285349238481845	0.32387584631454863	0.25248510655037576	0.24415562159005355	0.452285640416731	0.4070716264455476	0.3995663563202647	0.621951742466869	0.42803237872113464	0.4324402813016919	0.8607285294521339	0.3514009659365332	0.36132161775026517	1.0448778888227097	0.2734974153743601	0.3487905118122542	1.1134010690362874	0.26391280219515323	0.36225928761893433	1.1400618279773296	0.2668975997084415	0.3806681736480221	1.150440587975432	0.11421183779046154	0.3961214758282921	0.628335173676266	0.10310209216951502	0.42699671310936516	0.8670143807623037	0.1796846423070964	0.3511106733951654	1.052807338928561	0.27290697460095115	0.35042139697835933	1.0884778177095713	0.2728757973987559	0.3617425921618599	1.138072518926092	0.2549379284747869	0.36371455357980154	1.155409074621993
5	0.08333333333333333	0.3531766405464396	0.4840890823349987	1.0054614552465695	0.36372247672519864	0.5676949033884929	1.3731961857389665	0.36530096251750277	0.6912999345490518	1.7297447371684906	0.34630987102769395	0.552522665580275	1.77579042789573	0.4148710642362452	0.5848471642765981	1.784392521298899	0.3370961735779412	0.8147919626514198	1.793418490615103	0.15148566142679928	0.5129707520711381	1.020015787086857	0.17944292314504331	0.6551297138502065	1.4073594488813055	0.18163192166844103	0.7339068429682492	1.7498495989378002	0.19330482152995535	0.5441560427629337	1.7595927332962742	0.13590510191230998	0.6144691120687771	1.7748705681253725	0.19042510261191709	0.7789550097333887	1.7867603181515692	0.2537491111114013	0.3942179586935087	0.5435381159058413	0.265169967493474	0.2876867603039918	0.3235199213682845	0.2525423912158536	0.24410339673115133	0.45223258303466646	0.40712510747134395	0.399614479430108	0.6220100402400118	0.42474715512153893	0.44951303340137955	0.8699504673144668	0.35138871393798865	0.3610958616966005	1.0449266013310674	0.2741670921095623	0.3507789627832335	1.117916277225423	0.2639745688695016	0.3617730785688094	1.1398908657471576	0.26621194816627425	0.3806928538504337	1.1532845138595835	0.11419415374110047	0.3961252330178204	0.6283510066217661	0.10309599712335928	0.4270236555990666	0.8670125672935655	0.17962095139905188	0.35112437122301365	1.0528262080378765	0.27342361679226457	0.3517363335314085	1.0922687149595869	0.2728417918989571	0.361307298017861	1.1380443893047474	0.2549629578974231	0.36390801980143755	1.1557207006402104
6	0.1	0.35308016511460816	0.4841886865476606	1.0056948854818195	0.3637882978373474	0.5678005449905633	1.3734229214139582	0.3653007468724454	0.6913076468615783	1.729782880524932	0.3462552832607329	0.5524040368541113	1.7756800184263177	0.41473173749651127	0.584684970266066	1.784268101545239	0.33710715881729986	0.8147421472072904	1.7933968739982038	0.1511116987856314	0.5141668543073428	1.0166774314229667	0.17901967255902054	0.65620552700144	1.4037875836388454	0.18160670702939458	0.7339084876819845	1.7497622092774183	0.19329890553827886	0.5441747598522152	1.759323757067161	0.13469494115303912	0.6163297779473735	1.7786942263736787	0.19044884560181524	0.7787915724635909	1.7866948138205636	0.2537615880891926	0.39410671317884427	0.5435834403550123	0.2609343418842803	0.2854586422562488	0.32388241780219346	0.2525342221711217	0.24410343601218618	0.4522645175622431	0.40712330884285636	0.39966784584378273	0.6220231109743836	0.4246515516881438	0.4494971277421987	0.869969498786429	0.35126672969744416	0.36093681377605374	1.0449557191682848	0.27835613755174465	0.3380177342299522	1.1153955907545783	0.263916951620566	0.36126563762972	1.1397859277414104	0.26681478230330985	0.37902903390741177	1.1501072376826857	0.11419165611922127	0.39591527738815435	0.6285142372368968	0.10309239089618497	0.42701977779966177	0.867010972336712	0.17961959095875377	0.3510421991611822	1.0528232604888212	0.27273092339957883	0.3498633655137035	1.0884005573688613	0.2728915068423926	0.36159104109202617	1.1381015902251528	0.2549590099346325	0.36379848097373607	1.155720624185738
